<svg version="1.0" xmlns="http://www.w3.org/2000/svg" width="184" height="184" viewBox="0 0 138 138"><path d="M0 69.5V123h138V16H0v53.5zM134 62c0 12.5-1.1 16-6 18.5-2.4 1.3-8.5 1.5-37 1.5H57V71c0-8 .4-11.9 1.5-14 3-5.8 3.7-5.9 41.3-6H134v11zM21.5 67c0 3.8-.4 5-1.5 5-1.2 0-1.4-1-1.2-4.5.4-4.1.2-4.5-1.8-4.5s-2.2.4-1.8 4.5c.2 3.5 0 4.5-1.2 4.5-1.1 0-1.5-1.2-1.5-5v-5h9v5zm8.2-.1c.3 1.3 1.1 1.7 2.4 1.4 1-.3 1.9-.9 1.9-1.4 0-.5-.7-.6-1.5-.3-.8.4-1.5.1-1.5-.5s1.1-1.1 2.5-1.1c2.1 0 2.5.5 2.5 3 0 1.6.5 3 1.1 3 .7 0 .9-1.2.7-3.1-.4-2.8-.3-3 2.6-2.7 2.6.3 3 .7 3.1 3.3 0 3-.1 3-5.9 3.3-3.2.2-6.3-.1-6.8-.6-1.3-1.3-5.9 1-5.3 2.5.2.7-.3 1.3-1.3 1.3-1.4 0-1.7-.9-1.7-5v-5h3.3c2.5 0 3.5.5 3.9 1.9zm21.8 1.6c0 2.7-.3 3-3 3-2.1 0-3.1-.5-3.3-1.8-.6-3.3.6-4.9 3.5-4.5 2.4.3 2.8.8 2.8 3.3z"/><path d="M64.9 66.6c-1.5 1.8-.2 4.8 2.2 5 .9.1 1 0 .2-.3-.7-.3-1.3-1.6-1.3-3 0-1.8.4-2.4 1.5-1.9.8.3 1.5.1 1.5-.4 0-1.6-2.6-1.2-4.1.6zm6.5-.2c-1.1 2.9 0 5.1 2.6 5.1 2.1 0 2.5-.5 2.5-3 0-2.4-.5-3.1-2.3-3.3-1.3-.2-2.4.3-2.8 1.2zm4.4 2.4c.2 1.4-.2 2.2-1.2 2.2-1.9 0-2.9-1.7-2.2-3.6.8-2.2 3-1.2 3.4 1.4zm3.2-3c0 .6.9.8 2 .5 1.1-.3 2-.1 2 .5s-.8 1.3-1.7 1.5c-1.7.4-1.7.5 0 .6 2.3.1 2.2 1.9-.3 2.4-1.7.4-1.6.4.2.3 1.9-.1 2.3-.7 2.3-3.1 0-2.3-.5-3.1-2.2-3.3-1.3-.2-2.3.1-2.3.6zm7.5 2.7c0 2.1.5 3.5 1.2 3.5s1-.7.7-1.5c-.4-.9 0-1.5 1-1.5.9 0 1.6.7 1.6 1.5s.6 1.5 1.3 1.5c.7 0 1.2-1.4 1.2-3.5S93 65 92.3 65s-1.3.7-1.3 1.5-.7 1.5-1.6 1.5c-1 0-1.4-.6-1-1.5.3-.8 0-1.5-.7-1.5s-1.2 1.4-1.2 3.5zm9.5-2.6c0 .6.7.8 1.5.5.8-.4 1.5-.2 1.5.4 0 .5-.9 1.2-2.1 1.5-2.9.8-1.8 3.2 1.5 3.3 2.4.1 2.7-.2 2.4-3-.2-2.3-.9-3.2-2.5-3.4-1.3-.2-2.3.1-2.3.7zm3 4.1c0 .5-.4 1-1 1-.5 0-1-.5-1-1 0-.6.5-1 1-1 .6 0 1 .4 1 1zm4.5-1.5c0 2.1.5 3.5 1.2 3.5s1-.7.7-1.5c-.4-1.1 0-1.5 1.6-1.5s2 .4 1.6 1.5c-.3.8 0 1.5.7 1.5s1.2-1.4 1.2-3.5-.5-3.5-1.2-3.5-1 .7-.7 1.5c.4 1.1 0 1.5-1.6 1.5s-2-.4-1.6-1.5c.3-.8 0-1.5-.7-1.5s-1.2 1.4-1.2 3.5zm9 0c0 2.1.5 3.5 1.3 3.5.7 0 1.2-1.4 1.2-3.5s-.5-3.5-1.2-3.5c-.8 0-1.3 1.4-1.3 3.5zm5.4-3.3c-.6 2-.2 6.8.6 6.8.6 0 1-1.6 1-3.5s-.3-3.5-.7-3.5c-.5 0-.8.1-.9.2zm4.5 1.2c-1.1 2.8.1 5.1 2.6 5.3l2.5.3-2.5-1.2-2.5-1.2 2.8-.4c2.1-.2 2.7-.8 2.3-1.9-.3-.8-.6-1.7-.6-1.9 0-1.1-4.1-.2-4.6 1zm3.6.6c0 .5-.7 1-1.6 1-.8 0-1.2-.5-.9-1 .3-.6 1-1 1.6-1 .5 0 .9.4.9 1zm-100.3-.4c-1.1 1.1-.8 4.4.3 4.4 1.5 0 2.4-3 1.3-4.1-.5-.5-1.2-.6-1.6-.3zM40 67c0 .5.5 1 1 1 .6 0 1-.5 1-1 0-.6-.4-1-1-1-.5 0-1 .4-1 1zm-7.5 3c-.3.5-.1 1 .4 1 .6 0 1.1-.5 1.1-1 0-.6-.2-1-.4-1-.3 0-.8.4-1.1 1zm7.5 0c0 .5.5 1 1 1 .6 0 1-.5 1-1 0-.6-.4-1-1-1-.5 0-1 .4-1 1zm7.2-1.9c.1 1.3.8 2.3 1.3 2.1 1.5-.3 1.2-3.5-.3-4-.9-.3-1.3.3-1 1.9z"/></svg>