<svg width="14" height="14" viewBox="0 0 14 14" fill="none" xmlns="http://www.w3.org/2000/svg">
<g clip-path="url(#clip0_745_36)">
<path d="M9.10372 4.47125L8.21559 3.584L3.77497 8.02375C3.60008 8.1987 3.46136 8.40638 3.36674 8.63493C3.27211 8.86349 3.22343 9.10844 3.22347 9.35581C3.22351 9.60318 3.27227 9.84812 3.36697 10.0766C3.46168 10.3052 3.60046 10.5128 3.77541 10.6877C3.95035 10.8626 4.15803 11.0013 4.38659 11.0959C4.61514 11.1906 4.8601 11.2392 5.10747 11.2392C5.35484 11.2392 5.59977 11.1904 5.8283 11.0957C6.05682 11.001 6.26446 10.8622 6.43934 10.6873L11.7681 5.35938C12.3568 4.77052 12.6875 3.97189 12.6875 3.13919C12.6874 2.3065 12.3565 1.50794 11.7677 0.919191C11.1788 0.330444 10.3802 -0.000265137 9.54747 -0.00018309C8.71478 -0.000101043 7.91622 0.330765 7.32747 0.919629L1.73272 6.5135L1.72047 6.52488C0.00984377 8.2355 0.00984377 11.0075 1.72047 12.7173C3.43109 14.427 6.20309 14.427 7.91372 12.7173L7.92509 12.705L7.92597 12.7059L11.7453 8.88738L10.8572 8.00013L7.03784 11.8178L7.02647 11.8291C5.80847 13.0471 3.82747 13.0471 2.60947 11.8291C2.31893 11.538 2.08873 11.1923 1.93206 10.812C1.77538 10.4317 1.69532 10.0242 1.69646 9.61284C1.6976 9.20151 1.77991 8.79446 1.93869 8.41501C2.09747 8.03556 2.32958 7.69119 2.62172 7.40163L2.62084 7.40075L8.21647 1.80688C8.95059 1.07188 10.1458 1.07188 10.8808 1.80688C11.6158 2.54188 11.615 3.73625 10.8808 4.47038L5.55209 9.79825C5.43284 9.90795 5.27582 9.96732 5.11382 9.96398C4.95183 9.96064 4.79738 9.89484 4.68275 9.78032C4.56813 9.66581 4.50217 9.51143 4.49867 9.34944C4.49517 9.18745 4.55439 9.03037 4.66397 8.911L9.10459 4.47038L9.10372 4.47125Z" fill="#BABABA"/>
</g>
<defs>
<clipPath id="clip0_745_36">
<rect width="14" height="14" fill="white"/>
</clipPath>
</defs>
</svg>
