<svg width="14" height="14" fill="none" xmlns="http://www.w3.org/2000/svg"><g clip-path="url(#clip0_745_36)"><path d="M9.104 4.471l-.888-.887-4.441 4.44a1.884 1.884 0 002.664 2.663l5.33-5.328A3.14 3.14 0 007.326.92L1.733 6.515l-.013.01a4.38 4.38 0 006.193 6.192l.012-.011h.001l3.82-3.818-.89-.888-3.82 3.818-.01.011a3.126 3.126 0 01-4.418 0 3.125 3.125 0 01.013-4.427L2.62 7.4l5.595-5.594a1.885 1.885 0 012.665 0c.735.735.734 1.93 0 2.663L5.552 9.798a.628.628 0 01-.888-.887l4.44-4.44z" fill="#BABABA"/></g><defs><clipPath id="clip0_745_36"><path fill="#fff" d="M0 0h14v14H0z"/></clipPath></defs></svg>