<?xml version="1.0" standalone="no"?>
<!DOCTYPE svg PUBLIC "-//W3C//DTD SVG 20010904//EN"
 "http://www.w3.org/TR/2001/REC-SVG-20010904/DTD/svg10.dtd">
<svg version="1.0" xmlns="http://www.w3.org/2000/svg"
 width="138.000000pt" height="138.000000pt" viewBox="0 0 138.000000 138.000000"
 preserveAspectRatio="xMidYMid meet">
<metadata>
Created by potrace 1.14, written by Peter Selinger 2001-2017
</metadata>
<g transform="translate(0.000000,138.000000) scale(0.100000,-0.100000)"
fill="#000000" stroke="none">
<path d="M0 685 l0 -535 690 0 690 0 0 535 0 535 -690 0 -690 0 0 -535z m1340
75 c0 -125 -11 -160 -60 -185 -24 -13 -85 -15 -370 -15 l-340 0 0 110 c0 80 4
119 15 140 30 58 37 59 413 60 l342 0 0 -110z m-1125 -50 c0 -38 -4 -50 -15
-50 -12 0 -14 10 -12 45 4 41 2 45 -18 45 -20 0 -22 -4 -18 -45 2 -35 0 -45
-12 -45 -11 0 -15 12 -15 50 l0 50 45 0 45 0 0 -50z m82 1 c3 -13 11 -17 24
-14 10 3 19 9 19 14 0 5 -7 6 -15 3 -8 -4 -15 -1 -15 5 0 6 11 11 25 11 21 0
25 -5 25 -30 0 -16 5 -30 11 -30 7 0 9 12 7 31 -4 28 -3 30 26 27 26 -3 30 -7
31 -33 0 -30 -1 -30 -59 -33 -32 -2 -63 1 -68 6 -13 13 -59 -10 -53 -25 2 -7
-3 -13 -13 -13 -14 0 -17 9 -17 50 l0 50 33 0 c25 0 35 -5 39 -19z m218 -16
c0 -27 -3 -30 -30 -30 -21 0 -31 5 -33 18 -6 33 6 49 35 45 24 -3 28 -8 28
-33z"/>
<path d="M649 714 c-15 -18 -2 -48 22 -50 9 -1 10 0 2 3 -7 3 -13 16 -13 30 0
18 4 24 15 19 8 -3 15 -1 15 4 0 16 -26 12 -41 -6z"/>
<path d="M714 716 c-11 -29 0 -51 26 -51 21 0 25 5 25 30 0 24 -5 31 -23 33
-13 2 -24 -3 -28 -12z m44 -24 c2 -14 -2 -22 -12 -22 -19 0 -29 17 -22 36 8
22 30 12 34 -14z"/>
<path d="M790 722 c0 -6 9 -8 20 -5 11 3 20 1 20 -5 0 -6 -8 -13 -17 -15 -17
-4 -17 -5 0 -6 23 -1 22 -19 -3 -24 -17 -4 -16 -4 2 -3 19 1 23 7 23 31 0 23
-5 31 -22 33 -13 2 -23 -1 -23 -6z"/>
<path d="M865 695 c0 -21 5 -35 12 -35 7 0 10 7 7 15 -4 9 0 15 10 15 9 0 16
-7 16 -15 0 -8 6 -15 13 -15 7 0 12 14 12 35 0 21 -5 35 -12 35 -7 0 -13 -7
-13 -15 0 -8 -7 -15 -16 -15 -10 0 -14 6 -10 15 3 8 0 15 -7 15 -7 0 -12 -14
-12 -35z"/>
<path d="M960 721 c0 -6 7 -8 15 -5 8 4 15 2 15 -4 0 -5 -9 -12 -21 -15 -29
-8 -18 -32 15 -33 24 -1 27 2 24 30 -2 23 -9 32 -25 34 -13 2 -23 -1 -23 -7z
m30 -41 c0 -5 -4 -10 -10 -10 -5 0 -10 5 -10 10 0 6 5 10 10 10 6 0 10 -4 10
-10z"/>
<path d="M1035 695 c0 -21 5 -35 12 -35 7 0 10 7 7 15 -4 11 0 15 16 15 16 0
20 -4 16 -15 -3 -8 0 -15 7 -15 7 0 12 14 12 35 0 21 -5 35 -12 35 -7 0 -10
-7 -7 -15 4 -11 0 -15 -16 -15 -16 0 -20 4 -16 15 3 8 0 15 -7 15 -7 0 -12
-14 -12 -35z"/>
<path d="M1125 695 c0 -21 5 -35 13 -35 7 0 12 14 12 35 0 21 -5 35 -12 35 -8
0 -13 -14 -13 -35z"/>
<path d="M1179 728 c-6 -20 -2 -68 6 -68 6 0 10 16 10 35 0 19 -3 35 -7 35 -5
0 -8 -1 -9 -2z"/>
<path d="M1224 716 c-11 -28 1 -51 26 -53 l25 -3 -25 12 -25 12 28 4 c21 2 27
8 23 19 -3 8 -6 17 -6 19 0 11 -41 2 -46 -10z m36 -6 c0 -5 -7 -10 -16 -10 -8
0 -12 5 -9 10 3 6 10 10 16 10 5 0 9 -4 9 -10z"/>
<path d="M257 714 c-11 -11 -8 -44 3 -44 15 0 24 30 13 41 -5 5 -12 6 -16 3z"/>
<path d="M400 710 c0 -5 5 -10 10 -10 6 0 10 5 10 10 0 6 -4 10 -10 10 -5 0
-10 -4 -10 -10z"/>
<path d="M325 680 c-3 -5 -1 -10 4 -10 6 0 11 5 11 10 0 6 -2 10 -4 10 -3 0
-8 -4 -11 -10z"/>
<path d="M400 680 c0 -5 5 -10 10 -10 6 0 10 5 10 10 0 6 -4 10 -10 10 -5 0
-10 -4 -10 -10z"/>
<path d="M472 699 c1 -13 8 -23 13 -21 15 3 12 35 -3 40 -9 3 -13 -3 -10 -19z"/>
</g>
</svg>
