<svg width="50" height="52" viewBox="0 0 50 52" fill="none" xmlns="http://www.w3.org/2000/svg">
<path d="M18.9131 23.7131C25.2794 23.7131 30.4405 18.5524 30.4405 12.1857C30.4405 5.81937 25.2794 0.658325 18.9131 0.658325C12.5468 0.658325 7.38574 5.81937 7.38574 12.1857C7.39188 18.55 12.5492 23.7069 18.9131 23.7131ZM18.9131 2.83942C24.0752 2.83942 28.2594 7.0243 28.2594 12.1857C28.2594 17.3478 24.0752 21.532 18.9131 21.532C13.7514 21.532 9.56718 17.3478 9.56718 12.1857C9.57297 7.02635 13.7538 2.84555 18.9131 2.83942Z" fill="url(#paint0_linear_2474_4)"/>
<path d="M48.8711 30.1585L39.4703 25.153C39.1464 24.9764 38.7543 24.9805 38.4341 25.1635L29.8294 29.8749C26.6776 27.5301 22.9039 26.3088 18.8912 26.3088C13.8962 26.3197 9.26126 28.2611 5.8258 31.7945C2.34669 35.3605 0.438017 40.2355 0.449268 45.5247C0.450973 46.1265 0.938198 46.6138 1.53964 46.6155L31.8796 46.5609C33.3058 48.3318 35.1394 49.7311 37.2234 50.6398L38.4887 51.1959C38.6261 51.2572 38.7751 51.2869 38.9251 51.2831C39.0744 51.2804 39.2224 51.2511 39.3612 51.1959L40.7898 50.5743C46.0388 48.3721 49.4528 43.2342 49.449 37.5416V31.1289C49.4493 30.7239 49.2274 30.3512 48.8711 30.1585ZM2.66309 44.4235C2.89187 40.1373 4.56051 36.2224 7.39624 33.3103C10.4168 30.2022 14.5065 28.4899 18.9018 28.4899H18.9345C22.5445 28.4899 25.9255 29.6243 28.7281 31.7726V37.6725C28.7298 40.0149 29.3142 42.3198 30.4291 44.3795L2.66309 44.4235ZM47.2679 37.5416C47.27 42.3614 44.3752 46.7099 39.9282 48.5678H39.9173L38.9251 48.9929L38.0959 48.6329C33.7344 46.7273 30.914 42.4217 30.9092 37.662V31.7617L38.9684 27.345L47.2679 31.7726V37.5416Z" fill="url(#paint1_linear_2474_4)"/>
<path d="M35.9807 36.9636C35.5893 36.5061 34.9009 36.4526 34.443 36.844C33.9855 37.2354 33.9319 37.9238 34.3234 38.3813L36.7987 41.2713C37.0067 41.513 37.3091 41.6521 37.6276 41.6532C37.8775 41.6552 38.1202 41.5707 38.3146 41.4131L44.073 36.7349C44.5398 36.3523 44.608 35.6639 44.2254 35.1968C43.8432 34.73 43.1548 34.6618 42.688 35.0444L37.7585 39.0578L35.9807 36.9636Z" fill="url(#paint2_linear_2474_4)"/>
<defs>
<linearGradient id="paint0_linear_2474_4" x1="18.9131" y1="0.658325" x2="26.3548" y2="21.4143" gradientUnits="userSpaceOnUse">
<stop stop-color="#FCFFD4"/>
<stop offset="1" stop-color="#80805D"/>
</linearGradient>
<linearGradient id="paint1_linear_2474_4" x1="24.9491" y1="25.0233" x2="29.8932" y2="50.7541" gradientUnits="userSpaceOnUse">
<stop stop-color="#FCFFD4"/>
<stop offset="1" stop-color="#80805D"/>
</linearGradient>
<linearGradient id="paint2_linear_2474_4" x1="39.2673" y1="34.7968" x2="40.8253" y2="41.3952" gradientUnits="userSpaceOnUse">
<stop stop-color="#FCFFD4"/>
<stop offset="1" stop-color="#80805D"/>
</linearGradient>
</defs>
</svg>
