<svg width="54" height="52" viewBox="0 0 54 52" fill="none" xmlns="http://www.w3.org/2000/svg">
<path d="M53.9082 26.4477L53.8623 26.4706L46.1152 7.189H49.6502C50.284 7.189 50.7979 6.67511 50.7979 6.04128C50.7979 5.40746 50.284 4.89357 49.6502 4.89357H28.0502V1.57667C28.0502 0.942844 27.5363 0.428955 26.9024 0.428955C26.2686 0.428955 25.7547 0.942844 25.7547 1.57667V4.88209H4.16621C3.53238 4.88209 3.01849 5.39598 3.01849 6.02981C3.01849 6.66363 3.53238 7.17752 4.16621 7.17752H7.85037L0.0918172 26.4477C0.0344315 26.5821 0.00329968 26.7263 0 26.8723C0 32.1429 4.27266 36.4156 9.54325 36.4156C14.8138 36.4156 19.0865 32.1429 19.0865 26.8723C19.0832 26.7263 19.0521 26.5821 18.9947 26.4477L11.2476 7.16604H25.7547V42.6534C20.2801 43.0666 15.9991 46.395 15.9991 50.4234C15.9991 51.0573 16.513 51.5711 17.1469 51.5711H36.658C37.2919 51.5711 37.8057 51.0573 37.8057 50.4234C37.8057 46.395 33.5248 43.0666 28.0502 42.6534V7.16604H42.7065L35.0053 26.4477C34.9479 26.5821 34.9168 26.7263 34.9135 26.8723C34.9135 32.1429 39.1862 36.4156 44.4567 36.4156C49.7273 36.4156 54 32.1429 54 26.8723C53.9967 26.7263 53.9656 26.5821 53.9082 26.4477ZM9.53751 34.1373C5.98275 34.1325 2.95537 31.5521 2.38725 28.043H16.6419C16.0766 31.535 13.0749 34.1101 9.53751 34.1373ZM16.2287 25.7476H2.86929L9.56047 9.0942L16.2287 25.7476ZM35.3037 49.2757H18.4897C19.339 46.8081 22.8395 44.9029 26.891 44.9029C30.9424 44.9029 34.4544 46.8081 35.3037 49.2757ZM44.4051 9.10568L51.0733 25.7476H37.7139L44.4051 9.10568ZM44.4051 34.1373V34.1488C40.864 34.1206 37.861 31.5396 37.3007 28.043H51.5554C50.9872 31.5521 47.9599 34.1325 44.4051 34.1373Z" fill="url(#paint0_linear_79_447)"/>
<defs>
<linearGradient id="paint0_linear_79_447" x1="27" y1="0.428956" x2="42.82" y2="47.0186" gradientUnits="userSpaceOnUse">
<stop stop-color="#FCFFD4"/>
<stop offset="1" stop-color="#80805D"/>
</linearGradient>
</defs>
</svg>
