<svg width="48" height="44" viewBox="0 0 48 44" fill="none" xmlns="http://www.w3.org/2000/svg">
<path d="M45.6011 7.62954H31.7764C31.7764 7.62954 31.7764 7.54996 31.7764 7.50448V3.10467C31.7764 1.77976 30.7025 0.705811 29.3775 0.705811H18.6111C17.2862 0.705811 16.2122 1.77976 16.2122 3.10467V7.51585C16.2122 7.51585 16.2122 7.59544 16.2122 7.64091H2.39886C1.07395 7.64091 0 8.71486 0 10.0398V40.8953C0 42.2202 1.07395 43.2942 2.39886 43.2942H45.6011C46.9261 43.2942 48 42.2202 48 40.8953V10.0284C48 8.70349 46.9261 7.62954 45.6011 7.62954ZM18.486 7.49311L18.5088 3.08194C18.5088 3.01287 18.5648 2.95688 18.6338 2.95688H29.423C29.4921 2.95688 29.5481 3.01287 29.5481 3.08194V7.49311C29.5481 7.56218 29.4921 7.61817 29.423 7.61817H18.6111C18.542 7.61817 18.486 7.56218 18.486 7.49311ZM2.39886 9.90335H45.6011C44.5324 11.927 38.973 21.4997 28.6272 23.7963V22.4775C28.6275 21.1702 27.5808 20.1033 26.2738 20.0786H21.7262C20.4013 20.0786 19.3273 21.1526 19.3273 22.4775V23.819C8.99289 21.5452 3.41071 11.9384 2.35339 9.92608L2.39886 9.90335ZM26.3648 22.4775V29.0943C26.3648 29.1633 26.3088 29.2193 26.2397 29.2193H21.7262C21.6571 29.2193 21.6011 29.1633 21.6011 29.0943V22.4775C21.6011 22.4084 21.6571 22.3524 21.7262 22.3524H26.2738C26.3294 22.3681 26.3669 22.4198 26.3648 22.4775ZM45.6921 40.9067C45.6921 40.9757 45.6361 41.0317 45.567 41.0317H2.39886C2.3298 41.0317 2.2738 40.9757 2.2738 40.9067V14.1554C5.07058 18.2141 10.6414 24.3875 19.3273 26.1383V29.0829C19.3273 30.4078 20.4013 31.4817 21.7262 31.4817H26.2738C27.5987 31.4817 28.6727 30.4078 28.6727 29.0829V26.1383C37.3586 24.4102 42.9294 18.18 45.7262 14.1554L45.6921 40.9067Z" fill="url(#paint0_linear_79_413)"/>
<defs>
<linearGradient id="paint0_linear_79_413" x1="24" y1="0.705811" x2="36.5" y2="40" gradientUnits="userSpaceOnUse">
<stop stop-color="#FCFFD4"/>
<stop offset="1" stop-color="#80805D"/>
</linearGradient>
</defs>
</svg>
