<svg width="38" height="54" viewBox="0 0 38 54" fill="none" xmlns="http://www.w3.org/2000/svg">
<path d="M35.526 0H2.47363C1.23093 0 0.223633 1.00729 0.223633 2.24999V45.7424C0.223633 46.9851 1.23093 47.9924 2.47363 47.9924H5.97237V52.8749C5.97237 53.4961 6.47595 53.9999 7.09723 54C7.42615 54 7.73862 53.8561 7.95236 53.6061L10.4274 50.7261L12.9024 53.6061C13.3062 54.0783 14.0164 54.1337 14.4885 53.73C14.7383 53.5162 14.8823 53.2038 14.8823 52.8749V47.9924H35.526C36.7687 47.9924 37.776 46.9851 37.776 45.7424V2.24999C37.776 1.00729 36.7687 0 35.526 0ZM11.2824 48.2286C10.8785 47.7564 10.1683 47.701 9.69625 48.1047C9.65181 48.1427 9.61047 48.1842 9.57236 48.2286L8.22236 49.8036V45.5286C9.64366 46.064 11.2111 46.064 12.6324 45.5286V49.8036L11.2824 48.2286ZM14.5111 39.5436C14.5112 41.8064 12.69 43.6478 10.4274 43.6724H10.3824C8.10213 43.6724 6.25362 41.8239 6.25362 39.5436C6.25362 37.2634 8.10213 35.4149 10.3824 35.4149C12.6626 35.4149 14.5111 37.2634 14.5111 39.5436ZM35.4698 45.7311H14.8823V44.0999C17.4036 41.6395 17.453 37.6009 14.9926 35.0797C12.5322 32.5584 8.49363 32.509 5.97237 34.9694C3.45111 37.4298 3.40175 41.4684 5.86212 43.9896C5.8984 44.0269 5.9351 44.0636 5.97237 44.0999V45.7311H2.47363V2.24999H35.526L35.4698 45.7311Z" fill="url(#paint0_linear_2474_3)"/>
<path d="M28.7761 8.89868H9.22363C8.60235 8.89868 8.09863 9.4024 8.09863 10.0237C8.09863 10.645 8.60235 11.1487 9.22363 11.1487H28.7761C29.3974 11.1487 29.9011 10.645 29.9011 10.0237C29.9011 9.4024 29.3975 8.89868 28.7761 8.89868Z" fill="url(#paint1_linear_2474_3)"/>
<path d="M28.7761 15.3674H9.22363C8.60235 15.3674 8.09863 15.8712 8.09863 16.4924C8.09863 17.1137 8.60235 17.6174 9.22363 17.6174H28.7761C29.3974 17.6174 29.9011 17.1137 29.9011 16.4924C29.9011 15.8712 29.3975 15.3674 28.7761 15.3674Z" fill="url(#paint2_linear_2474_3)"/>
<path d="M28.7761 21.8362H9.22363C8.60235 21.8362 8.09863 22.3399 8.09863 22.9612C8.09863 23.5825 8.60235 24.0862 9.22363 24.0862H28.7761C29.3974 24.0862 29.9011 23.5825 29.9011 22.9612C29.9011 22.3399 29.3975 21.8362 28.7761 21.8362Z" fill="url(#paint3_linear_2474_3)"/>
<path d="M28.7761 28.3049H9.22363C8.60235 28.3049 8.09863 28.8087 8.09863 29.4299C8.09863 30.0512 8.60235 30.555 9.22363 30.555H28.7761C29.3974 30.555 29.9011 30.0512 29.9011 29.4299C29.9011 28.8087 29.3975 28.3049 28.7761 28.3049Z" fill="url(#paint4_linear_2474_3)"/>
<path d="M28.7762 34.7737H19.8437C19.2225 34.7737 18.7188 35.2774 18.7188 35.8987C18.7188 36.52 19.2225 37.0237 19.8437 37.0237H28.7762C29.3975 37.0237 29.9012 36.52 29.9012 35.8987C29.9012 35.2774 29.3976 34.7737 28.7762 34.7737Z" fill="url(#paint5_linear_2474_3)"/>
<defs>
<linearGradient id="paint0_linear_2474_3" x1="18.9998" y1="5.3237e-07" x2="41.3466" y2="43.3437" gradientUnits="userSpaceOnUse">
<stop stop-color="#FCFFD4"/>
<stop offset="1" stop-color="#80805D"/>
</linearGradient>
<linearGradient id="paint1_linear_2474_3" x1="18.9999" y1="8.89868" x2="19.0843" y2="11.1816" gradientUnits="userSpaceOnUse">
<stop stop-color="#FCFFD4"/>
<stop offset="1" stop-color="#80805D"/>
</linearGradient>
<linearGradient id="paint2_linear_2474_3" x1="18.9999" y1="15.3674" x2="19.0843" y2="17.6504" gradientUnits="userSpaceOnUse">
<stop stop-color="#FCFFD4"/>
<stop offset="1" stop-color="#80805D"/>
</linearGradient>
<linearGradient id="paint3_linear_2474_3" x1="18.9999" y1="21.8362" x2="19.0843" y2="24.1191" gradientUnits="userSpaceOnUse">
<stop stop-color="#FCFFD4"/>
<stop offset="1" stop-color="#80805D"/>
</linearGradient>
<linearGradient id="paint4_linear_2474_3" x1="18.9999" y1="28.3049" x2="19.0843" y2="30.5879" gradientUnits="userSpaceOnUse">
<stop stop-color="#FCFFD4"/>
<stop offset="1" stop-color="#80805D"/>
</linearGradient>
<linearGradient id="paint5_linear_2474_3" x1="24.31" y1="34.7737" x2="24.474" y2="37.0479" gradientUnits="userSpaceOnUse">
<stop stop-color="#FCFFD4"/>
<stop offset="1" stop-color="#80805D"/>
</linearGradient>
</defs>
</svg>
