<svg width="60" height="60" viewBox="0 0 60 60" fill="none" xmlns="http://www.w3.org/2000/svg">
<path d="M55.681 29.8403C57.1229 28.7835 58.0645 27.0823 58.0645 25.1613C58.0645 22.1439 55.7516 19.6597 52.8058 19.3829C49.5484 12.3968 43.2706 7.28419 35.7919 5.52097C35.6419 2.45226 33.1055 0 30 0C26.8945 0 24.3581 2.45226 24.2081 5.52097C16.7303 7.28419 10.4506 12.3987 7.19419 19.3829C4.24839 19.6597 1.93548 22.1439 1.93548 25.1613C1.93548 27.0823 2.8771 28.7835 4.31903 29.8403C1.76419 31.1071 0 33.7355 0 36.7742V39.6774C0 40.2116 0.433548 40.6452 0.967742 40.6452H7.20677C10.1971 47.0284 15.8439 51.9484 22.5552 54.0319C22.3665 54.6997 22.2581 55.4013 22.2581 56.129V59.0323C22.2581 59.5665 22.6916 60 23.2258 60H36.7742C37.3084 60 37.7419 59.5665 37.7419 59.0323V56.129C37.7419 55.4013 37.6335 54.6997 37.4458 54.0319C44.1561 51.9484 49.8029 47.0284 52.7932 40.6452H59.0323C59.5665 40.6452 60 40.2116 60 39.6774V36.7742C60 33.7355 58.2358 31.1071 55.681 29.8403V29.8403ZM56.129 25.1613C56.129 27.2961 54.3929 29.0323 52.2581 29.0323C50.1232 29.0323 48.3871 27.2961 48.3871 25.1613C48.3871 23.0265 50.1232 21.2903 52.2581 21.2903C54.3929 21.2903 56.129 23.0265 56.129 25.1613ZM30 1.93548C32.1348 1.93548 33.871 3.67161 33.871 5.80645C33.871 7.94129 32.1348 9.67742 30 9.67742C27.8652 9.67742 26.129 7.94129 26.129 5.80645C26.129 3.67161 27.8652 1.93548 30 1.93548ZM3.87097 25.1613C3.87097 23.0265 5.6071 21.2903 7.74194 21.2903C9.87677 21.2903 11.6129 23.0265 11.6129 25.1613C11.6129 27.2961 9.87677 29.0323 7.74194 29.0323C5.6071 29.0323 3.87097 27.2961 3.87097 25.1613ZM1.93548 36.7742C1.93548 33.5719 4.53968 30.9677 7.74194 30.9677C10.9442 30.9677 13.5484 33.5719 13.5484 36.7742V38.7097H1.93548V36.7742ZM35.8064 58.0645H24.1935V56.129C24.1935 52.9268 26.7977 50.3226 30 50.3226C33.2023 50.3226 35.8064 52.9268 35.8064 56.129V58.0645ZM26.129 44.5161C26.129 42.3813 27.8652 40.6452 30 40.6452C32.1348 40.6452 33.871 42.3813 33.871 44.5161C33.871 46.651 32.1348 48.3871 30 48.3871C27.8652 48.3871 26.129 46.651 26.129 44.5161ZM36.6832 52.2397C35.9197 50.9323 34.7855 49.8706 33.4229 49.1952C34.8648 48.1384 35.8064 46.4371 35.8064 44.5161C35.8064 41.3139 33.2023 38.7097 30 38.7097C26.7977 38.7097 24.1935 41.3139 24.1935 44.5161C24.1935 46.4371 25.1352 48.1384 26.5771 49.1952C25.2155 49.8706 24.0813 50.9323 23.3168 52.2397C17.3294 50.4387 12.2352 46.199 9.35806 40.6452H14.5161C15.0503 40.6452 15.4839 40.2116 15.4839 39.6774V36.7742C15.4839 33.7355 13.7197 31.1071 11.1648 29.8403C12.6068 28.7835 13.5484 27.0823 13.5484 25.1613C13.5484 22.4816 11.7213 20.2268 9.24968 19.561C12.3 13.5048 17.8568 9.07355 24.4345 7.45548C24.8003 8.68645 25.5639 9.74419 26.5761 10.4865C24.0223 11.7523 22.2581 14.3806 22.2581 17.4194V20.3226C22.2581 20.8568 22.6916 21.2903 23.2258 21.2903H36.7742C37.3084 21.2903 37.7419 20.8568 37.7419 20.3226V17.4194C37.7419 14.3806 35.9777 11.7523 33.4229 10.4855C34.4342 9.74323 35.1987 8.68548 35.5645 7.45452C42.1442 9.07258 47.699 13.5029 50.7494 19.56C48.2777 20.2268 46.4516 22.4816 46.4516 25.1613C46.4516 27.0823 47.3932 28.7835 48.8352 29.8403C46.2803 31.1071 44.5161 33.7355 44.5161 36.7742V39.6774C44.5161 40.2116 44.9497 40.6452 45.4839 40.6452H50.6419C47.7639 46.199 42.6706 50.4387 36.6832 52.2397V52.2397ZM30 11.6129C33.2023 11.6129 35.8064 14.2171 35.8064 17.4194V19.3548H24.1935V17.4194C24.1935 14.2171 26.7977 11.6129 30 11.6129ZM58.0645 38.7097H46.4516V36.7742C46.4516 33.5719 49.0558 30.9677 52.2581 30.9677C55.4603 30.9677 58.0645 33.5719 58.0645 36.7742V38.7097Z" fill="url(#paint0_linear_79_418)"/>
<path d="M25.1611 30H23.2256C23.2256 33.7355 26.2643 36.7742 29.9998 36.7742V34.8387C27.3317 34.8387 25.1611 32.6681 25.1611 30Z" fill="url(#paint1_linear_79_418)"/>
<path d="M30 23.2258V25.1613C32.6681 25.1613 34.8387 27.332 34.8387 30H36.7742C36.7742 26.2645 33.7355 23.2258 30 23.2258Z" fill="url(#paint2_linear_79_418)"/>
<defs>
<linearGradient id="paint0_linear_79_418" x1="30" y1="5.91522e-07" x2="49.3671" y2="54.0174" gradientUnits="userSpaceOnUse">
<stop stop-color="#FCFFD4"/>
<stop offset="1" stop-color="#80805D"/>
</linearGradient>
<linearGradient id="paint1_linear_79_418" x1="26.6127" y1="30" x2="28.7993" y2="36.0987" gradientUnits="userSpaceOnUse">
<stop stop-color="#FCFFD4"/>
<stop offset="1" stop-color="#80805D"/>
</linearGradient>
<linearGradient id="paint2_linear_79_418" x1="33.3871" y1="23.2258" x2="35.5737" y2="29.3246" gradientUnits="userSpaceOnUse">
<stop stop-color="#FCFFD4"/>
<stop offset="1" stop-color="#80805D"/>
</linearGradient>
</defs>
</svg>
