<svg width="38" height="48" viewBox="0 0 38 48" fill="none" xmlns="http://www.w3.org/2000/svg">
<path d="M37.1764 9.71856L19.1359 0.105646C18.8682 -0.0371944 18.5475 -0.0351898 18.2818 0.110658L0.740525 9.72357C0.452839 9.88145 0.274414 10.1832 0.274414 10.5114V23.0684C0.284939 33.3905 6.40052 42.7287 15.8581 46.8641L18.2929 47.9251C18.5204 48.0244 18.7795 48.0249 19.0076 47.9261L21.7511 46.7413C31.3841 42.6957 37.651 33.2672 37.652 22.8193V10.5114C37.652 10.1797 37.4691 9.87443 37.1764 9.71856V9.71856ZM35.8557 22.8193C35.8537 32.547 30.0173 41.3244 21.0479 45.0889L21.0419 45.0919L18.6527 46.1233L16.5768 45.2177C7.77329 41.3685 2.08022 32.6768 2.07019 23.0684V11.0432L18.7194 1.91847L35.8557 11.0497V22.8193Z" fill="url(#paint0_linear_2474_5)"/>
<path d="M12.0933 22.4862C11.771 22.1088 11.2041 22.0642 10.8267 22.3865C10.4494 22.7082 10.4047 23.2756 10.727 23.6525L15.4713 29.2082C15.7881 29.5791 16.3429 29.6297 16.7208 29.322L27.7701 20.3326C28.155 20.0198 28.2132 19.454 27.8999 19.0691C27.5872 18.6847 27.0213 18.626 26.6364 18.9393L16.2677 27.3744L12.0933 22.4862Z" fill="url(#paint1_linear_2474_5)"/>
<defs>
<linearGradient id="paint0_linear_2474_5" x1="18.9632" y1="-0.000121597" x2="37.4902" y2="40.2385" gradientUnits="userSpaceOnUse">
<stop stop-color="#FCFFD4"/>
<stop offset="1" stop-color="#80805D"/>
</linearGradient>
<linearGradient id="paint1_linear_2474_5" x1="19.3066" y1="18.7378" x2="21.6047" y2="29.1909" gradientUnits="userSpaceOnUse">
<stop stop-color="#FCFFD4"/>
<stop offset="1" stop-color="#80805D"/>
</linearGradient>
</defs>
</svg>
