<svg width="24" height="24" fill="none" xmlns="http://www.w3.org/2000/svg"><path d="M14.5 10c-.83 0-1.5-.67-1.5-1.5v-5c0-.83.67-1.5 1.5-1.5s1.5.67 1.5 1.5v5c0 .83-.67 1.5-1.5 1.5z" stroke="url(#paint0_linear_649_529)" stroke-width="2" stroke-linecap="round" stroke-linejoin="round"/><path d="M20.5 10H19V8.5c0-.83.67-1.5 1.5-1.5s1.5.67 1.5 1.5-.67 1.5-1.5 1.5z" stroke="url(#paint1_linear_649_529)" stroke-width="2" stroke-linecap="round" stroke-linejoin="round"/><path d="M9.5 14c.83 0 1.5.67 1.5 1.5v5c0 .83-.67 1.5-1.5 1.5S8 21.33 8 20.5v-5c0-.83.67-1.5 1.5-1.5z" stroke="url(#paint2_linear_649_529)" stroke-width="2" stroke-linecap="round" stroke-linejoin="round"/><path d="M3.5 14H5v1.5c0 .83-.67 1.5-1.5 1.5S2 16.33 2 15.5 2.67 14 3.5 14z" stroke="url(#paint3_linear_649_529)" stroke-width="2" stroke-linecap="round" stroke-linejoin="round"/><path d="M14 14.5c0-.83.67-1.5 1.5-1.5h5c.83 0 1.5.67 1.5 1.5s-.67 1.5-1.5 1.5h-5c-.83 0-1.5-.67-1.5-1.5z" stroke="url(#paint4_linear_649_529)" stroke-width="2" stroke-linecap="round" stroke-linejoin="round"/><path d="M15.5 19H14v1.5c0 .83.67 1.5 1.5 1.5s1.5-.67 1.5-1.5-.67-1.5-1.5-1.5z" stroke="url(#paint5_linear_649_529)" stroke-width="2" stroke-linecap="round" stroke-linejoin="round"/><path d="M10 9.5C10 8.67 9.33 8 8.5 8h-5C2.67 8 2 8.67 2 9.5S2.67 11 3.5 11h5c.83 0 1.5-.67 1.5-1.5z" stroke="url(#paint6_linear_649_529)" stroke-width="2" stroke-linecap="round" stroke-linejoin="round"/><path d="M8.5 5H10V3.5C10 2.67 9.33 2 8.5 2S7 2.67 7 3.5 7.67 5 8.5 5z" stroke="url(#paint7_linear_649_529)" stroke-width="2" stroke-linecap="round" stroke-linejoin="round"/><defs><linearGradient id="paint0_linear_649_529" x1="14.5" y1="2" x2="18.56" y2="6.246" gradientUnits="userSpaceOnUse"><stop stop-color="#FCFFD4"/><stop offset="1" stop-color="#80805D"/></linearGradient><linearGradient id="paint1_linear_649_529" x1="20.5" y1="7" x2="21.468" y2="9.701" gradientUnits="userSpaceOnUse"><stop stop-color="#FCFFD4"/><stop offset="1" stop-color="#80805D"/></linearGradient><linearGradient id="paint2_linear_649_529" x1="9.5" y1="14" x2="13.56" y2="18.246" gradientUnits="userSpaceOnUse"><stop stop-color="#FCFFD4"/><stop offset="1" stop-color="#80805D"/></linearGradient><linearGradient id="paint3_linear_649_529" x1="3.5" y1="14" x2="4.468" y2="16.701" gradientUnits="userSpaceOnUse"><stop stop-color="#FCFFD4"/><stop offset="1" stop-color="#80805D"/></linearGradient><linearGradient id="paint4_linear_649_529" x1="18" y1="13" x2="18.402" y2="15.994" gradientUnits="userSpaceOnUse"><stop stop-color="#FCFFD4"/><stop offset="1" stop-color="#80805D"/></linearGradient><linearGradient id="paint5_linear_649_529" x1="15.5" y1="19" x2="16.468" y2="21.701" gradientUnits="userSpaceOnUse"><stop stop-color="#FCFFD4"/><stop offset="1" stop-color="#80805D"/></linearGradient><linearGradient id="paint6_linear_649_529" x1="6" y1="8" x2="6.403" y2="10.994" gradientUnits="userSpaceOnUse"><stop stop-color="#FCFFD4"/><stop offset="1" stop-color="#80805D"/></linearGradient><linearGradient id="paint7_linear_649_529" x1="8.5" y1="2" x2="9.468" y2="4.701" gradientUnits="userSpaceOnUse"><stop stop-color="#FCFFD4"/><stop offset="1" stop-color="#80805D"/></linearGradient></defs></svg>