<svg width="24" height="24" fill="none" xmlns="http://www.w3.org/2000/svg"><path d="M17 21v-2a4 4 0 00-4-4H5a4 4 0 00-4 4v2" stroke="url(#paint0_linear_649_559)" stroke-width="2" stroke-linecap="round" stroke-linejoin="round"/><path d="M9 11a4 4 0 100-8 4 4 0 000 8z" stroke="url(#paint1_linear_649_559)" stroke-width="2" stroke-linecap="round" stroke-linejoin="round"/><path d="M23 21v-2a4 4 0 00-3-3.87" stroke="url(#paint2_linear_649_559)" stroke-width="2" stroke-linecap="round" stroke-linejoin="round"/><path d="M16 3.13a4 4 0 010 7.75" stroke="url(#paint3_linear_649_559)" stroke-width="2" stroke-linecap="round" stroke-linejoin="round"/><defs><linearGradient id="paint0_linear_649_559" x1="9" y1="15" x2="9.805" y2="20.988" gradientUnits="userSpaceOnUse"><stop stop-color="#FCFFD4"/><stop offset="1" stop-color="#80805D"/></linearGradient><linearGradient id="paint1_linear_649_559" x1="9" y1="3" x2="11.582" y2="10.202" gradientUnits="userSpaceOnUse"><stop stop-color="#FCFFD4"/><stop offset="1" stop-color="#80805D"/></linearGradient><linearGradient id="paint2_linear_649_559" x1="21.5" y1="15.13" x2="24.304" y2="19.127" gradientUnits="userSpaceOnUse"><stop stop-color="#FCFFD4"/><stop offset="1" stop-color="#80805D"/></linearGradient><linearGradient id="paint3_linear_649_559" x1="17.504" y1="3.13" x2="21.429" y2="7.378" gradientUnits="userSpaceOnUse"><stop stop-color="#FCFFD4"/><stop offset="1" stop-color="#80805D"/></linearGradient></defs></svg>