<svg width="50" height="52" fill="none" xmlns="http://www.w3.org/2000/svg"><path d="M18.913 23.713c6.366 0 11.527-5.16 11.527-11.527C30.44 5.819 25.28.658 18.913.658 12.547.658 7.386 5.82 7.386 12.186c.006 6.364 5.163 11.52 11.527 11.527zm0-20.874a9.346 9.346 0 11-9.346 9.347 9.357 9.357 0 019.346-9.347z" fill="url(#paint0_linear_2474_4)"/><path d="M48.871 30.159l-9.4-5.006a1.063 1.063 0 00-1.037.01l-8.605 4.712c-3.151-2.345-6.925-3.566-10.938-3.566-4.995.01-9.63 1.952-13.065 5.485-3.48 3.567-5.388 8.442-5.377 13.73.002.602.49 1.09 1.09 1.091l30.34-.054a14.094 14.094 0 005.344 4.079l1.266.556c.137.061.286.09.436.087a1.25 1.25 0 00.436-.087l1.429-.622a14.123 14.123 0 008.659-13.032v-6.413c0-.405-.222-.778-.578-.97zM2.663 44.422c.229-4.286 1.898-8.2 4.733-11.113 3.02-3.108 7.11-4.82 11.506-4.82h.032c3.61 0 6.991 1.134 9.794 3.283v5.9a14.11 14.11 0 001.701 6.706l-27.766.044zm44.605-6.881a11.944 11.944 0 01-7.34 11.026h-.01l-.993.425-.83-.36a11.985 11.985 0 01-7.186-10.971v-5.9l8.06-4.417 8.299 4.428v5.769z" fill="url(#paint1_linear_2474_4)"/><path d="M35.98 36.964a1.09 1.09 0 00-1.657 1.417l2.476 2.89a1.098 1.098 0 001.516.142l5.758-4.678a1.093 1.093 0 00-1.385-1.69l-4.93 4.013-1.777-2.094z" fill="url(#paint2_linear_2474_4)"/><defs><linearGradient id="paint0_linear_2474_4" x1="18.913" y1=".658" x2="26.355" y2="21.414" gradientUnits="userSpaceOnUse"><stop stop-color="#FCFFD4"/><stop offset="1" stop-color="#80805D"/></linearGradient><linearGradient id="paint1_linear_2474_4" x1="24.949" y1="25.023" x2="29.893" y2="50.754" gradientUnits="userSpaceOnUse"><stop stop-color="#FCFFD4"/><stop offset="1" stop-color="#80805D"/></linearGradient><linearGradient id="paint2_linear_2474_4" x1="39.267" y1="34.797" x2="40.825" y2="41.395" gradientUnits="userSpaceOnUse"><stop stop-color="#FCFFD4"/><stop offset="1" stop-color="#80805D"/></linearGradient></defs></svg>