<svg width="54" height="52" fill="none" xmlns="http://www.w3.org/2000/svg"><path d="M53.908 26.448l-.046.023-7.747-19.282h3.535a1.148 1.148 0 000-2.295h-21.6V1.577a1.148 1.148 0 00-2.295 0v3.305H4.166a1.148 1.148 0 000 2.296H7.85L.092 26.448a1.148 1.148 0 00-.092.424 9.543 9.543 0 1019.087 0 1.147 1.147 0 00-.092-.424L11.248 7.166h14.507v35.487c-5.475.414-9.756 3.742-9.756 7.77 0 .634.514 1.148 1.148 1.148h19.511c.634 0 1.148-.514 1.148-1.148 0-4.028-4.281-7.356-9.756-7.77V7.166h14.656l-7.7 19.282a1.147 1.147 0 00-.093.424 9.543 9.543 0 0019.087 0 1.147 1.147 0 00-.092-.424zm-44.37 7.69a7.253 7.253 0 01-7.15-6.095h14.254a7.254 7.254 0 01-7.104 6.094zm6.69-8.39H2.87L9.56 9.094l6.669 16.654zm19.076 23.528H18.49c.849-2.468 4.35-4.373 8.401-4.373s7.563 1.905 8.413 4.373zm9.101-40.17l6.668 16.642h-13.36l6.692-16.642zm0 25.031v.012a7.254 7.254 0 01-7.104-6.106h14.254a7.253 7.253 0 01-7.15 6.094z" fill="url(#paint0_linear_79_447)"/><defs><linearGradient id="paint0_linear_79_447" x1="27" y1=".429" x2="42.82" y2="47.019" gradientUnits="userSpaceOnUse"><stop stop-color="#FCFFD4"/><stop offset="1" stop-color="#80805D"/></linearGradient></defs></svg>