<svg width="48" height="44" fill="none" xmlns="http://www.w3.org/2000/svg"><path d="M45.601 7.63H31.776V3.104A2.399 2.399 0 0029.378.707H18.61a2.399 2.399 0 00-2.399 2.399V7.64H2.4a2.399 2.399 0 00-2.4 2.4v30.855a2.399 2.399 0 002.399 2.4H45.6a2.399 2.399 0 002.399-2.4V10.028A2.399 2.399 0 0045.6 7.63zm-27.115-.137l.023-4.411c0-.07.056-.125.125-.125h10.789c.07 0 .125.056.125.125v4.411c0 .07-.056.125-.125.125H18.611a.125.125 0 01-.125-.125zM2.399 9.903H45.6c-1.069 2.024-6.628 11.597-16.974 13.893v-1.319a2.399 2.399 0 00-2.353-2.398h-4.548a2.399 2.399 0 00-2.399 2.398v1.342C8.993 21.545 3.411 11.939 2.353 9.926l.046-.023zm23.966 12.574v6.617a.125.125 0 01-.125.125h-4.514a.125.125 0 01-.125-.125v-6.617c0-.069.056-.125.125-.125h4.548a.125.125 0 01.09.125zm19.327 18.43a.125.125 0 01-.125.125H2.399a.125.125 0 01-.125-.125V14.155c2.797 4.06 8.367 10.232 17.053 11.983v2.945a2.399 2.399 0 002.4 2.399h4.547a2.399 2.399 0 002.399-2.4v-2.944c8.686-1.728 14.256-7.958 17.053-11.983l-.034 26.752z" fill="url(#paint0_linear_79_413)"/><defs><linearGradient id="paint0_linear_79_413" x1="24" y1=".706" x2="36.5" y2="40" gradientUnits="userSpaceOnUse"><stop stop-color="#FCFFD4"/><stop offset="1" stop-color="#80805D"/></linearGradient></defs></svg>