<svg width="38" height="54" fill="none" xmlns="http://www.w3.org/2000/svg"><path d="M35.526 0H2.474a2.25 2.25 0 00-2.25 2.25v43.492a2.25 2.25 0 002.25 2.25h3.498v4.883a1.125 1.125 0 001.98.731l2.475-2.88 2.475 2.88a1.125 1.125 0 001.98-.731v-4.883h20.644a2.25 2.25 0 002.25-2.25V2.25A2.25 2.25 0 0035.526 0zM11.282 48.229a1.125 1.125 0 00-1.71 0l-1.35 1.575v-4.275a6.255 6.255 0 004.41 0v4.275l-1.35-1.575zm3.23-8.685a4.129 4.129 0 01-4.085 4.128h-.045a4.129 4.129 0 114.13-4.128zM35.47 45.73H14.882V44.1a6.379 6.379 0 10-8.91 0v1.631H2.474V2.25h33.052l-.056 43.481z" fill="url(#paint0_linear_2474_3)"/><path d="M28.776 8.899H9.224a1.125 1.125 0 000 2.25h19.552a1.125 1.125 0 000-2.25z" fill="url(#paint1_linear_2474_3)"/><path d="M28.776 15.367H9.224a1.125 1.125 0 000 2.25h19.552a1.125 1.125 0 000-2.25z" fill="url(#paint2_linear_2474_3)"/><path d="M28.776 21.836H9.224a1.125 1.125 0 000 2.25h19.552a1.125 1.125 0 000-2.25z" fill="url(#paint3_linear_2474_3)"/><path d="M28.776 28.305H9.224a1.125 1.125 0 000 2.25h19.552a1.125 1.125 0 000-2.25z" fill="url(#paint4_linear_2474_3)"/><path d="M28.776 34.774h-8.932a1.125 1.125 0 000 2.25h8.932a1.125 1.125 0 000-2.25z" fill="url(#paint5_linear_2474_3)"/><defs><linearGradient id="paint0_linear_2474_3" x1="19" y1="0" x2="41.347" y2="43.344" gradientUnits="userSpaceOnUse"><stop stop-color="#FCFFD4"/><stop offset="1" stop-color="#80805D"/></linearGradient><linearGradient id="paint1_linear_2474_3" x1="19" y1="8.899" x2="19.084" y2="11.182" gradientUnits="userSpaceOnUse"><stop stop-color="#FCFFD4"/><stop offset="1" stop-color="#80805D"/></linearGradient><linearGradient id="paint2_linear_2474_3" x1="19" y1="15.367" x2="19.084" y2="17.65" gradientUnits="userSpaceOnUse"><stop stop-color="#FCFFD4"/><stop offset="1" stop-color="#80805D"/></linearGradient><linearGradient id="paint3_linear_2474_3" x1="19" y1="21.836" x2="19.084" y2="24.119" gradientUnits="userSpaceOnUse"><stop stop-color="#FCFFD4"/><stop offset="1" stop-color="#80805D"/></linearGradient><linearGradient id="paint4_linear_2474_3" x1="19" y1="28.305" x2="19.084" y2="30.588" gradientUnits="userSpaceOnUse"><stop stop-color="#FCFFD4"/><stop offset="1" stop-color="#80805D"/></linearGradient><linearGradient id="paint5_linear_2474_3" x1="24.31" y1="34.774" x2="24.474" y2="37.048" gradientUnits="userSpaceOnUse"><stop stop-color="#FCFFD4"/><stop offset="1" stop-color="#80805D"/></linearGradient></defs></svg>