<svg width="60" height="60" fill="none" xmlns="http://www.w3.org/2000/svg"><path d="M55.681 29.84a5.794 5.794 0 002.384-4.679 5.812 5.812 0 00-5.26-5.778A25.166 25.166 0 0035.793 5.52C35.642 2.452 33.105 0 30 0s-5.642 2.452-5.792 5.521A25.17 25.17 0 007.194 19.383a5.812 5.812 0 00-5.259 5.778c0 1.921.942 3.622 2.384 4.68C1.764 31.106 0 33.735 0 36.773v2.903c0 .535.434.968.968.968h6.239c2.99 6.383 8.637 11.303 15.348 13.387a7.695 7.695 0 00-.297 2.097v2.903c0 .535.434.968.968.968h13.548a.968.968 0 00.968-.968V56.13c0-.728-.108-1.43-.296-2.097 6.71-2.084 12.357-7.004 15.347-13.387h6.24a.968.968 0 00.967-.968v-2.903c0-3.038-1.764-5.667-4.319-6.934zm.448-4.679a3.875 3.875 0 01-3.87 3.871 3.875 3.875 0 01-3.872-3.87 3.875 3.875 0 013.871-3.872 3.875 3.875 0 013.871 3.871zM30 1.935a3.875 3.875 0 013.871 3.871A3.875 3.875 0 0130 9.677a3.875 3.875 0 01-3.871-3.87A3.875 3.875 0 0130 1.934zM3.871 25.161a3.875 3.875 0 013.87-3.87 3.875 3.875 0 013.872 3.87 3.875 3.875 0 01-3.871 3.871 3.875 3.875 0 01-3.871-3.87zM1.935 36.774a5.812 5.812 0 015.807-5.806 5.812 5.812 0 015.806 5.806v1.936H1.935v-1.936zm33.871 21.29H24.194V56.13A5.812 5.812 0 0130 50.323a5.812 5.812 0 015.806 5.806v1.936zM26.13 44.517A3.875 3.875 0 0130 40.646a3.875 3.875 0 013.871 3.87A3.875 3.875 0 0130 48.387a3.875 3.875 0 01-3.871-3.87zm10.554 7.724a7.78 7.78 0 00-3.26-3.045 5.794 5.794 0 002.383-4.679A5.812 5.812 0 0030 38.71a5.812 5.812 0 00-5.806 5.806c0 1.921.941 3.622 2.383 4.68a7.792 7.792 0 00-3.26 3.044c-5.988-1.801-11.082-6.041-13.959-11.595h5.158a.968.968 0 00.968-.968v-2.903c0-3.038-1.764-5.667-4.32-6.934a5.794 5.794 0 002.384-4.679c0-2.68-1.827-4.934-4.298-5.6A23.237 23.237 0 0124.434 7.455a5.82 5.82 0 002.142 3.031c-2.554 1.266-4.318 3.895-4.318 6.933v2.904c0 .534.434.967.968.967h13.548a.968.968 0 00.968-.967v-2.904c0-3.038-1.764-5.667-4.32-6.934a5.825 5.825 0 002.143-3.03A23.23 23.23 0 0150.748 19.56c-2.471.667-4.297 2.922-4.297 5.601 0 1.921.941 3.622 2.383 4.68-2.555 1.266-4.319 3.895-4.319 6.933v2.903c0 .535.434.968.968.968h5.158C47.764 46.2 42.67 50.44 36.683 52.24zM30 11.613a5.812 5.812 0 015.806 5.806v1.936H24.194v-1.936A5.812 5.812 0 0130 11.613zM58.065 38.71H46.452v-1.936a5.812 5.812 0 015.806-5.806 5.812 5.812 0 015.806 5.806v1.936z" fill="url(#paint0_linear_79_418)"/><path d="M25.161 30h-1.935A6.782 6.782 0 0030 36.774V34.84A4.844 4.844 0 0125.16 30z" fill="url(#paint1_linear_79_418)"/><path d="M30 23.226v1.935A4.844 4.844 0 0134.839 30h1.935A6.782 6.782 0 0030 23.226z" fill="url(#paint2_linear_79_418)"/><defs><linearGradient id="paint0_linear_79_418" x1="30" y1="0" x2="49.367" y2="54.017" gradientUnits="userSpaceOnUse"><stop stop-color="#FCFFD4"/><stop offset="1" stop-color="#80805D"/></linearGradient><linearGradient id="paint1_linear_79_418" x1="26.613" y1="30" x2="28.799" y2="36.099" gradientUnits="userSpaceOnUse"><stop stop-color="#FCFFD4"/><stop offset="1" stop-color="#80805D"/></linearGradient><linearGradient id="paint2_linear_79_418" x1="33.387" y1="23.226" x2="35.574" y2="29.325" gradientUnits="userSpaceOnUse"><stop stop-color="#FCFFD4"/><stop offset="1" stop-color="#80805D"/></linearGradient></defs></svg>