<svg width="38" height="48" fill="none" xmlns="http://www.w3.org/2000/svg"><path d="M37.176 9.719L19.136.106a.896.896 0 00-.854.005L.74 9.724a.898.898 0 00-.467.787v12.557a26 26 0 0015.584 23.796l2.435 1.061c.227.1.486.1.715.001l2.743-1.185A25.949 25.949 0 0037.652 22.82V10.511a.898.898 0 00-.476-.792zm-1.32 13.1a24.157 24.157 0 01-14.808 22.27l-.006.003-2.39 1.031-2.075-.905A24.201 24.201 0 012.07 23.068V11.043l16.65-9.125 17.136 9.132v11.77z" fill="url(#paint0_linear_2474_5)"/><path d="M12.093 22.486a.898.898 0 00-1.366 1.166l4.744 5.556a.898.898 0 001.25.114l11.05-8.99a.898.898 0 10-1.135-1.393l-10.368 8.435-4.175-4.888z" fill="url(#paint1_linear_2474_5)"/><defs><linearGradient id="paint0_linear_2474_5" x1="18.963" y1="0" x2="37.49" y2="40.239" gradientUnits="userSpaceOnUse"><stop stop-color="#FCFFD4"/><stop offset="1" stop-color="#80805D"/></linearGradient><linearGradient id="paint1_linear_2474_5" x1="19.307" y1="18.738" x2="21.605" y2="29.191" gradientUnits="userSpaceOnUse"><stop stop-color="#FCFFD4"/><stop offset="1" stop-color="#80805D"/></linearGradient></defs></svg>