<svg width="24" height="24" viewBox="0 0 24 24" fill="none" xmlns="http://www.w3.org/2000/svg">
<path d="M14.5 10C13.67 10 13 9.33 13 8.5V3.5C13 2.67 13.67 2 14.5 2C15.33 2 16 2.67 16 3.5V8.5C16 9.33 15.33 10 14.5 10Z" stroke="url(#paint0_linear_649_529)" stroke-width="2" stroke-linecap="round" stroke-linejoin="round"/>
<path d="M20.5 10H19V8.5C19 7.67 19.67 7 20.5 7C21.33 7 22 7.67 22 8.5C22 9.33 21.33 10 20.5 10Z" stroke="url(#paint1_linear_649_529)" stroke-width="2" stroke-linecap="round" stroke-linejoin="round"/>
<path d="M9.5 14C10.33 14 11 14.67 11 15.5V20.5C11 21.33 10.33 22 9.5 22C8.67 22 8 21.33 8 20.5V15.5C8 14.67 8.67 14 9.5 14Z" stroke="url(#paint2_linear_649_529)" stroke-width="2" stroke-linecap="round" stroke-linejoin="round"/>
<path d="M3.5 14H5V15.5C5 16.33 4.33 17 3.5 17C2.67 17 2 16.33 2 15.5C2 14.67 2.67 14 3.5 14Z" stroke="url(#paint3_linear_649_529)" stroke-width="2" stroke-linecap="round" stroke-linejoin="round"/>
<path d="M14 14.5C14 13.67 14.67 13 15.5 13H20.5C21.33 13 22 13.67 22 14.5C22 15.33 21.33 16 20.5 16H15.5C14.67 16 14 15.33 14 14.5Z" stroke="url(#paint4_linear_649_529)" stroke-width="2" stroke-linecap="round" stroke-linejoin="round"/>
<path d="M15.5 19H14V20.5C14 21.33 14.67 22 15.5 22C16.33 22 17 21.33 17 20.5C17 19.67 16.33 19 15.5 19Z" stroke="url(#paint5_linear_649_529)" stroke-width="2" stroke-linecap="round" stroke-linejoin="round"/>
<path d="M10 9.5C10 8.67 9.33 8 8.5 8H3.5C2.67 8 2 8.67 2 9.5C2 10.33 2.67 11 3.5 11H8.5C9.33 11 10 10.33 10 9.5Z" stroke="url(#paint6_linear_649_529)" stroke-width="2" stroke-linecap="round" stroke-linejoin="round"/>
<path d="M8.5 5H10V3.5C10 2.67 9.33 2 8.5 2C7.67 2 7 2.67 7 3.5C7 4.33 7.67 5 8.5 5Z" stroke="url(#paint7_linear_649_529)" stroke-width="2" stroke-linecap="round" stroke-linejoin="round"/>
<defs>
<linearGradient id="paint0_linear_649_529" x1="14.5" y1="2" x2="18.56" y2="6.24643" gradientUnits="userSpaceOnUse">
<stop stop-color="#FCFFD4"/>
<stop offset="1" stop-color="#80805D"/>
</linearGradient>
<linearGradient id="paint1_linear_649_529" x1="20.5" y1="7" x2="21.4684" y2="9.70087" gradientUnits="userSpaceOnUse">
<stop stop-color="#FCFFD4"/>
<stop offset="1" stop-color="#80805D"/>
</linearGradient>
<linearGradient id="paint2_linear_649_529" x1="9.5" y1="14" x2="13.56" y2="18.2464" gradientUnits="userSpaceOnUse">
<stop stop-color="#FCFFD4"/>
<stop offset="1" stop-color="#80805D"/>
</linearGradient>
<linearGradient id="paint3_linear_649_529" x1="3.5" y1="14" x2="4.46836" y2="16.7009" gradientUnits="userSpaceOnUse">
<stop stop-color="#FCFFD4"/>
<stop offset="1" stop-color="#80805D"/>
</linearGradient>
<linearGradient id="paint4_linear_649_529" x1="18" y1="13" x2="18.4025" y2="15.9939" gradientUnits="userSpaceOnUse">
<stop stop-color="#FCFFD4"/>
<stop offset="1" stop-color="#80805D"/>
</linearGradient>
<linearGradient id="paint5_linear_649_529" x1="15.5" y1="19" x2="16.4684" y2="21.7009" gradientUnits="userSpaceOnUse">
<stop stop-color="#FCFFD4"/>
<stop offset="1" stop-color="#80805D"/>
</linearGradient>
<linearGradient id="paint6_linear_649_529" x1="6" y1="8" x2="6.40254" y2="10.9939" gradientUnits="userSpaceOnUse">
<stop stop-color="#FCFFD4"/>
<stop offset="1" stop-color="#80805D"/>
</linearGradient>
<linearGradient id="paint7_linear_649_529" x1="8.5" y1="2" x2="9.46836" y2="4.70087" gradientUnits="userSpaceOnUse">
<stop stop-color="#FCFFD4"/>
<stop offset="1" stop-color="#80805D"/>
</linearGradient>
</defs>
</svg>
